<?xml version="1.0" encoding="utf-8"?>
<!-- Generator: Adobe Illustrator 27.7.0, SVG Export Plug-In . SVG Version: 6.00 Build 0)  -->
<svg version="1.1" id="Capa_1" xmlns="http://www.w3.org/2000/svg" xmlns:xlink="http://www.w3.org/1999/xlink" x="0px" y="0px"
	 viewBox="0 0 1378.44 423.45" style="enable-background:new 0 0 1378.44 423.45;" xml:space="preserve">
<style type="text/css">
	.st0{fill:#F08801;}
	.st1{fill:#F18D0C;}
</style>
<g>
	<path class="st0" d="M240.96,53.95c2.32-1.58,5.04-2.16,7.66-2.84c1.95-0.51,3.87,0.67,5.8,1.08c3.72,0.8,5.77,3.41,6.99,6.88
		c2.41,6.87,0.36,12.67-4.36,17.69c-8.76,9.31-17.65,18.49-26.49,27.73c-6.77,7.07-13.54,14.14-20.3,21.21
		c-7.04,7.37-14.07,14.75-21.11,22.11c-6.71,7.02-13.43,14.02-20.13,21.04c-2.79,2.92-5.54,5.87-8.4,8.91
		c1.63,2.32,3.25,4.61,4.86,6.91c3.69,5.27,7.4,10.53,11.07,15.81c6.11,8.77,12.09,17.62,18.32,26.31
		c5.15,7.19,10.15,14.48,15.25,21.7c5.57,7.88,11.16,15.75,16.7,23.65c5.5,7.84,10.93,15.73,16.4,23.58
		c5.15,7.4,10.41,14.73,15.44,22.21c3.24,4.81,4.41,10.15,1.47,15.47c-3.54,6.43-8.05,8.62-15.35,7.15
		c-0.63-0.13-1.26-0.25-1.89-0.38c-0.16-0.14-0.31-0.27-0.47-0.41c-0.17-0.05-0.35-0.1-0.52-0.15c-0.17-0.1-0.35-0.21-0.52-0.31
		c-1.51-0.55-2.47-1.77-3.35-2.98c-1.27-1.74-2.45-3.54-3.76-5.26c-2.9-3.8-5.77-7.66-8.26-11.73c-1.54-2.53-3.77-4.55-5.02-7.25
		c0.02-0.71,0.04-1.41-0.94-1.48c-3.28-3.96-5.92-8.38-9.02-12.47c-3.26-4.31-6.23-8.83-9.38-13.22c-3.09-4.31-6.23-8.59-9.13-13.05
		c-0.69-1.06-1.44-2.07-2.16-3.1c0.01-0.67,0.01-1.33-0.88-1.45c-2.68-3.36-4.96-7-7.43-10.49c-2.19-3.09-4.4-6.2-6.73-9.21
		c-1.65-2.13-3.23-4.34-4.48-6.75c-0.75-1.44-2.04-2.44-2.98-3.74c-1.48-2.04-2.59-4.34-4.26-6.25c0.01-0.68,0.03-1.37-0.91-1.47
		c-1.74-1.77-3.04-3.88-4.39-5.94c-4.6-7.01-9.56-13.77-14.32-20.68c-0.68-0.98-1.38-1.95-2.09-2.91c-1.14-1.55-1.25-1.59-2.54-0.26
		c-2.65,2.73-5.26,5.49-7.88,8.25c-2.11,2.23-4.2,4.49-6.31,6.73c-4.82,5.11-9.61,10.25-14.5,15.3c-1.17,1.21-1.55,2.44-1.54,4.09
		c0.04,30.37,0.02,60.73,0.05,91.1c0,2.11-0.05,4.22-0.79,6.19c-2.7,7.22-8.32,10.78-16.39,9.45c-3.2-0.53-5.01-2.59-7.02-4.61
		c-2.37-2.39-3.55-5.28-3.54-8.66c0-0.65-0.01-1.3-0.01-1.94c0-86.24,0-172.48,0-258.71c0-1.54-0.04-3.07,0.41-4.57
		c0.53-0.72,1.19-1.41,0.62-2.41c-0.1-1.15,1.05-1.57,1.41-2.45c0.96-0.07,0.95-0.76,0.94-1.46c2.46-3.35,6.2-4.27,9.94-4.76
		c2.07-0.28,4.28,0.38,6.27,1.24c5.82,2.52,8.07,7.35,8.11,13.31c0.09,14.74,0.03,29.48,0.03,44.23c0,26.16,0,52.33,0,78.49
		c0,0.86,0,1.72,0,3.18c1.65-1.59,3.07-2.67,4.11-4.04c2.36-3.11,5.41-5.53,7.98-8.42c3.97-4.47,8.41-8.49,12.38-12.95
		c2.96-3.32,6.28-6.27,9.21-9.6c3.74-4.24,7.97-8.02,11.69-12.26c3.05-3.46,6.55-6.47,9.53-9.96c3.42-4,7.44-7.41,10.86-11.38
		c3.22-3.75,7.01-6.92,10.21-10.66c3.37-3.94,7.34-7.29,10.69-11.2c3.11-3.63,6.78-6.7,9.86-10.31c3.31-3.88,7.23-7.17,10.52-11.02
		c3.26-3.82,7.12-7.04,10.37-10.83c3.32-3.87,7.16-7.22,10.51-11.03c1.09-1.24,2.15-2.46,3.42-3.5
		C240.67,54.27,240.81,54.11,240.96,53.95z"/>
	<path class="st0" d="M857.03,190.09c-0.07-0.37-0.14-0.73-0.2-1.1c-0.05-0.16-0.14-0.28-0.28-0.36c-0.72-2.46-1.43-4.93-2.15-7.39
		c-0.09-0.13-0.19-0.26-0.28-0.39c-0.07-0.37-0.14-0.73-0.2-1.1c-0.05-0.16-0.14-0.28-0.28-0.36c-0.07-0.37-0.14-0.73-0.2-1.1
		c-0.05-0.16-0.14-0.28-0.28-0.36c-0.72-2.46-1.44-4.91-2.16-7.37c-0.1-0.14-0.19-0.27-0.29-0.41c-0.06-0.37-0.13-0.73-0.19-1.1
		c-0.05-0.16-0.14-0.28-0.28-0.36c-0.07-0.37-0.14-0.73-0.2-1.1c-0.05-0.16-0.14-0.28-0.28-0.36c-0.72-2.46-1.44-4.91-2.16-7.37
		c-0.1-0.14-0.19-0.27-0.29-0.41c-0.02-0.35-0.05-0.7-0.07-1.05c0.57-0.67,0.08-0.81-0.46-0.92c-0.22-1.75-0.51-3.49-0.64-5.25
		c-0.19-2.64-0.07-5.28,0.56-7.87c0.14-0.16,0.27-0.31,0.41-0.47c0.22-2.01,1.49-3.4,3.13-4.21c4.87-2.41,9.78-2.36,14.57,0.35
		c3.24,1.83,4.93,4.99,5.91,8.28c1.35,4.5,2.88,8.93,4.23,13.43c1.88,6.27,3.94,12.48,5.9,18.72c3.28,10.42,6.67,20.8,9.78,31.27
		c1.78,5.99,4.02,11.83,5.65,17.87c1.38,5.1,3.4,9.99,4.72,15.1c1.52,5.89,3.87,11.51,5.47,17.36c1.5,5.48,3.69,10.75,5.04,16.26
		c1.01,4.12,2.82,7.96,3.84,12.06c0.18,0.72,0.17,1.65,1.15,2.17c1.33-4.52,2.66-8.99,3.96-13.48c0.77-2.64,1.6-5.27,2.24-7.94
		c1.39-5.84,3.34-11.53,4.92-17.32c1.46-5.34,3.1-10.67,4.74-15.98c0.62-2,1.17-4.01,1.54-6.08c0.45-2.48,1.69-4.76,2.34-7.22
		c2.18-8.25,4.35-16.5,6.79-24.67c1.67-5.58,3.26-11.18,4.9-16.77c1.95-6.65,3.92-13.3,5.75-19.98c1.19-4.35,2.82-8.58,3.88-12.95
		c0.61-2.53,1.82-4.65,2.99-6.87c0.8-1.51,1.99-2.48,3.37-3.26c5.52-3.14,12.53-2.68,17.13,1.66c1.95,1.84,3.22,4.29,3.89,7.05
		c1.12,4.58,2.55,9.1,3.85,13.64c2.36,8.24,4.72,16.47,7.07,24.71c1.6,5.62,3.24,11.23,4.76,16.86c2.41,8.92,5.09,17.77,7.57,26.67
		c2.23,8.01,4.58,16,6.86,24c3.38,11.88,6.71,23.77,10.06,35.66c0.09,0.31,0.19,0.62,0.74,0.81c0.34-0.57,0.95-1.17,1.04-1.84
		c0.25-1.99,1.09-3.78,1.76-5.62c1.73-4.68,2.39-9.68,4.35-14.28c1.48-3.45,2.36-7.1,3.42-10.67c1.72-5.76,4.05-11.35,5.37-17.2
		c0.79-3.49,2.21-6.74,3.09-10.2c0.77-3.05,2.14-6.01,2.79-9.15c0.11-0.14,0.21-0.27,0.32-0.41c0.05-0.35,0.1-0.7,0.16-1.05
		c0.11-0.14,0.22-0.28,0.33-0.42c0.05-0.34,0.1-0.67,0.14-1.01c1.29-0.98,1.5-2.36,1.44-3.84c0.03-0.35,0.05-0.7,0.08-1.05
		c0.09-0.13,0.19-0.26,0.29-0.39c0.05-0.35,0.09-0.7,0.14-1.06c0.11-0.15,0.22-0.3,0.33-0.46c0.19-0.82,0.38-1.63,0.57-2.45
		c0.13-0.16,0.27-0.32,0.4-0.48c-0.17-1.07,0.49-1.94,0.66-2.93c0.11-0.14,0.22-0.28,0.33-0.42c0.05-0.35,0.11-0.69,0.16-1.04
		c0.11-0.14,0.22-0.28,0.33-0.42c0.05-0.35,0.1-0.69,0.15-1.04c0.11-0.15,0.22-0.3,0.32-0.45c0.13-0.33,0.25-0.65,0.38-0.98
		c0.5-0.2,0.77-0.46,0.25-0.93c0.03-0.35,0.05-0.7,0.08-1.05c0.1-0.13,0.19-0.25,0.29-0.38c0.06-0.36,0.12-0.72,0.19-1.08
		c0.1-0.13,0.2-0.25,0.3-0.38c0.05-0.36,0.1-0.72,0.16-1.08c0.1-0.15,0.21-0.31,0.31-0.46c0.35-1.3,0.7-2.59,1.05-3.89
		c0.55-0.1,1.13-0.19,0.52-0.93c0.02-0.34,0.04-0.69,0.06-1.03c0.11-0.14,0.22-0.28,0.33-0.42c0.55-1.97,1.1-3.93,1.65-5.9
		c0.1-0.13,0.2-0.25,0.3-0.38c0.06-0.36,0.12-0.72,0.18-1.08c0.1-0.13,0.2-0.26,0.3-0.4c0.06-0.35,0.11-0.71,0.17-1.06
		c0.1-0.14,0.21-0.29,0.31-0.43c0.04-0.34,0.08-0.68,0.12-1.02c0.12-0.16,0.24-0.32,0.35-0.47c0.84-2.91,1.68-5.83,2.52-8.74
		c0.53-0.1,1.12-0.17,0.54-0.92c0.02-0.35,0.04-0.7,0.06-1.05c0.1-0.13,0.2-0.26,0.3-0.39c0.06-0.35,0.11-0.71,0.17-1.06
		c0.11-0.13,0.21-0.27,0.32-0.4c0.06-0.35,0.11-0.7,0.17-1.05c0.11-0.14,0.21-0.27,0.32-0.41c0.05-0.34,0.1-0.68,0.15-1.02
		c1.47-1.48,1.96-3.3,1.84-5.33c0.69-2.44,1.38-4.89,2.07-7.33c0.11-0.14,0.21-0.27,0.32-0.41c0.05-0.35,0.11-0.7,0.16-1.05
		c0.11-0.14,0.22-0.28,0.32-0.42c0.06-0.34,0.11-0.67,0.17-1.01c1.15-0.28,0.7-1.22,0.8-1.93c0.86-3.1,2.43-5.68,5.3-7.33
		c0.17-0.1,0.34-0.21,0.51-0.31c4.09-2.01,8.26-2.34,12.5-0.49c4.35,1.9,6.03,5.56,6.45,9.97c0.33,3.53-0.72,6.81-1.84,10.13
		c-2.58,7.64-4.91,15.36-7.36,23.04c-2.25,7.07-4.5,14.14-6.8,21.2c-1.46,4.47-2.95,8.94-4.29,13.44
		c-2.96,9.86-6.22,19.63-9.26,29.46c-1.95,6.32-4,12.61-6.01,18.91c-4.33,13.61-8.65,27.22-12.99,40.82
		c-2.77,8.67-5.57,17.34-8.37,26c-1.16,3.59-3.76,5.92-6.94,7.73c-2.99,1.7-6.16,1.18-9.29,0.71c-5.24-0.78-8.29-4.34-9.74-8.97
		c-1.84-5.86-3.45-11.82-5.13-17.74c-1.38-4.85-2.76-9.71-4.21-14.55c-1.75-5.82-3.45-11.65-5-17.53c-1.21-4.58-2.77-9.06-4.1-13.61
		c-1.15-3.95-2.16-7.95-3.29-11.91c-1.32-4.63-2.72-9.23-4.07-13.85c-1.5-5.15-3.04-10.3-4.45-15.48c-0.75-2.77-1.58-5.52-2.19-8.35
		c-0.9-4.15-2.27-8.19-3.45-12.28c-0.83-2.88-1.67-5.75-2.51-8.62c-1.25-4.31-2.5-8.61-3.88-13.33c-0.82,2.57-1.6,4.73-2.2,6.93
		c-3.4,12.33-7.06,24.58-10.64,36.85c-3.41,11.68-6.61,23.41-9.98,35.1c-2.47,8.59-5.22,17.11-7.54,25.74
		c-2.67,9.88-5.72,19.65-8.42,29.53c-1.09,4-2.27,7.98-3.44,11.96c-0.87,2.97-2.34,5.48-4.68,7.67c-4.22,3.93-13.74,3.48-17.02-0.18
		c-1.84-2.06-3.95-3.83-4.57-6.68c-0.3-1.51-0.23-3.17-1.77-4.15c-0.18-1.9-1.03-3.62-1.53-5.43c-0.04-0.16-0.14-0.29-0.28-0.37
		c-0.07-0.37-0.14-0.73-0.2-1.1c-0.05-0.16-0.14-0.28-0.28-0.36c-0.07-0.37-0.14-0.73-0.2-1.1c-0.05-0.16-0.14-0.28-0.28-0.36
		c-0.72-2.46-1.43-4.93-2.15-7.39c-0.09-0.13-0.19-0.26-0.28-0.39c-0.07-0.37-0.14-0.73-0.2-1.1c-0.05-0.16-0.14-0.28-0.28-0.36
		c-0.07-0.37-0.14-0.73-0.2-1.1c-0.05-0.16-0.14-0.28-0.28-0.36c-0.72-2.46-1.43-4.93-2.15-7.39c-0.09-0.13-0.19-0.26-0.28-0.39
		c-0.07-0.37-0.14-0.73-0.2-1.1c-0.05-0.16-0.14-0.28-0.28-0.36c-0.07-0.37-0.14-0.73-0.2-1.1c-0.05-0.16-0.14-0.28-0.28-0.36
		c-0.65-2.87-1.77-5.61-2.26-8.52c-0.27-1.51-0.29-3.12-1.72-4.15c-0.45-2.37-1.32-4.62-2.07-6.9c-0.05-0.16-0.14-0.28-0.28-0.36
		c-0.07-0.37-0.14-0.73-0.2-1.1c-0.05-0.16-0.14-0.28-0.28-0.36c-0.07-0.37-0.14-0.73-0.2-1.1c-0.05-0.16-0.14-0.28-0.28-0.36
		c-0.34-2.58-1.39-4.96-2.15-7.42c-0.05-0.16-0.14-0.28-0.28-0.36c-0.07-0.37-0.14-0.73-0.2-1.1c-0.05-0.16-0.14-0.28-0.28-0.36
		c-0.07-0.37-0.14-0.73-0.2-1.1c-0.05-0.16-0.14-0.28-0.28-0.36c-0.34-2.58-1.39-4.96-2.15-7.42c-0.05-0.16-0.14-0.28-0.28-0.36
		c-0.07-0.37-0.14-0.73-0.2-1.1c-0.05-0.16-0.14-0.28-0.28-0.36c-0.07-0.37-0.14-0.73-0.2-1.1c-0.05-0.16-0.14-0.28-0.28-0.36
		c-0.29-2.6-1.48-4.94-2.18-7.42c-0.03-0.16-0.12-0.28-0.26-0.35c-0.07-0.37-0.14-0.73-0.2-1.1c-0.05-0.16-0.14-0.28-0.28-0.36
		c-0.07-0.37-0.14-0.73-0.2-1.1c-0.05-0.16-0.14-0.28-0.28-0.36c-0.28-2.6-1.48-4.94-2.18-7.42c-0.03-0.16-0.12-0.28-0.26-0.35
		c-0.07-0.37-0.14-0.73-0.2-1.1c-0.05-0.16-0.14-0.28-0.28-0.36c-0.07-0.37-0.14-0.73-0.2-1.1c-0.05-0.16-0.14-0.28-0.28-0.36
		c-0.03-0.35-0.06-0.7-0.09-1.05c0.58-0.74,0.01-0.82-0.53-0.92c-0.23-1.9-0.99-3.65-1.56-5.45c-0.03-0.16-0.12-0.28-0.26-0.35
		c-0.07-0.37-0.14-0.73-0.2-1.1c-0.05-0.16-0.14-0.28-0.28-0.36c-0.07-0.37-0.14-0.73-0.2-1.1c-0.05-0.16-0.14-0.28-0.28-0.36
		c-0.03-0.35-0.06-0.7-0.09-1.05c0.58-0.74,0.01-0.82-0.53-0.92c-0.51-1.81-1.02-3.62-1.53-5.43c-0.04-0.16-0.14-0.29-0.28-0.37
		c-0.07-0.37-0.14-0.73-0.2-1.1c-0.05-0.16-0.14-0.28-0.28-0.36c-0.07-0.37-0.14-0.73-0.2-1.1c-0.05-0.16-0.14-0.28-0.28-0.36
		c-0.03-0.35-0.06-0.7-0.09-1.05c0.58-0.75-0.01-0.82-0.54-0.92c-0.51-1.81-1.02-3.62-1.53-5.43c-0.04-0.16-0.14-0.29-0.28-0.37
		c-0.07-0.37-0.14-0.73-0.2-1.1c-0.05-0.16-0.14-0.28-0.28-0.36c-0.07-0.37-0.14-0.73-0.2-1.1c-0.05-0.16-0.14-0.28-0.28-0.36
		c-0.03-0.35-0.06-0.7-0.09-1.05c0.58-0.75-0.01-0.82-0.54-0.92c-0.51-1.8-1.02-3.61-1.53-5.41c-0.09-0.13-0.19-0.26-0.28-0.39
		c-0.07-0.37-0.14-0.73-0.2-1.1C857.26,190.29,857.17,190.17,857.03,190.09z"/>
	<path class="st0" d="M1124.35,193.48c0.77-2.3,1.5-4.61,3.26-6.41c0.19-0.19,0.16-0.6,0.23-0.91c0.14-0.15,0.27-0.3,0.41-0.45
		c1.72-3.23,3.5-6.43,5.87-9.25c0.96-0.08,0.95-0.77,0.93-1.47c1.88-2.68,3.79-5.32,6.26-7.52c1.18-1.06,2.03-2.48,3.19-3.58
		c3.49-3.31,6.86-6.77,11.02-9.3c0.72,0.02,1.39-0.03,1.42-1c0.02-0.28,0.17-0.44,0.45-0.49c0.17-0.11,0.34-0.21,0.52-0.32
		c0.32-0.22,0.63-0.43,0.95-0.65c0.17-0.1,0.34-0.2,0.51-0.3c0.63-0.38,1.26-0.76,1.89-1.14c0.18-0.11,0.36-0.23,0.55-0.34
		c0.64-0.38,1.28-0.76,1.92-1.14c0.72,0.04,1.43,0.06,1.5-0.94l0-0.01c0.15-0.12,0.31-0.23,0.46-0.35c3.11-1.84,6.45-3.18,9.8-4.5
		c0.14-0.12,0.28-0.24,0.41-0.36c4.62-1.98,9.49-3.17,14.36-4.33c0.7-0.17,1.44-0.13,2.16-0.19c0.68,0.02,1.4,0.09,1.5-0.88
		c3.22-0.37,6.43-0.77,9.65-1.09c9.24-0.93,18.47-0.7,27.59,1.05c6.45,1.23,12.86,2.8,18.95,5.33c3.56,1.48,7.12,3.04,10.44,4.97
		c6.1,3.56,11.97,7.44,17.22,12.26c3.1,2.84,6.14,5.75,8.99,8.79c1.87,2,3.5,4.34,5.13,6.62c3.44,4.83,6.63,9.87,9.18,15.18
		c2.94,6.13,5.44,12.5,7.12,19.14c2.61,10.3,3.87,20.74,3.86,31.36c-0.02,27.95-0.01,55.9,0,83.85c0,1.63-0.11,3.23-0.37,4.84
		c-0.85,5.4-6.34,10.96-12.48,11.03c-2.89,0.03-5.63-0.49-8.31-1.4c-1.14-0.39-2.06-1.28-2.77-2.22c-2.01-2.68-3.97-5.28-3.86-9.02
		c0.22-6.88,0.05-13.77,0.05-20.66c0-0.78,0-1.56,0-2.8c-0.98,1.24-1.66,2.1-2.33,2.96c-5.65,7.25-12.09,13.64-19.71,18.9
		c-6.56,4.54-13.49,8.17-20.96,10.96c-4.8,1.8-9.72,3.1-14.72,3.9c-8.09,1.29-16.29,1.55-24.48,0.86c-2.74-0.23-5.53-0.27-8.21-0.82
		c-4.4-0.92-8.94-1.31-13.07-3.35c-1.01-0.5-2.09-0.88-3.19-1.16c-3.19-0.79-6.09-2.33-9.04-3.65c-3.39-1.52-6.39-3.89-9.61-5.79
		c-2.32-1.37-4.32-3.18-6.59-4.64c-1.41-0.91-2.73-2.18-3.95-3.36c-3.09-3.01-6.05-6.15-8.95-9.36c-3.38-3.75-6.18-7.92-9.02-12.03
		c-2.95-4.27-4.79-9.21-7.07-13.88c-1.97-4.04-3.04-8.34-4.4-12.56c-2.32-7.23-3.23-14.69-3.93-22.2
		c-0.98-10.47-0.33-20.87,1.45-31.21c0.23-1.35,0.44-2.71,0.66-4.07c0.62-0.14,1.05-0.35,0.35-0.97c0.05-0.5,0.1-0.99,0.16-1.49
		c0.1-0.15,0.2-0.3,0.31-0.45c0.07-0.5,0.14-1,0.21-1.5c0.1-0.14,0.19-0.28,0.29-0.41c0.04-0.34,0.09-0.67,0.13-1.01
		c0.58-0.12,1.07-0.29,0.41-0.95c0.03-0.34,0.07-0.68,0.1-1.02c0.11-0.14,0.22-0.29,0.32-0.43c0.05-0.34,0.1-0.68,0.15-1.02
		c0.11-0.15,0.22-0.29,0.34-0.44c0.05-0.34,0.1-0.68,0.15-1.02c0.11-0.15,0.22-0.29,0.33-0.44c0.04-0.34,0.09-0.68,0.13-1.02
		c0.12-0.15,0.23-0.3,0.35-0.46c0.05-0.33,0.11-0.67,0.16-1c0.11-0.13,0.22-0.26,0.34-0.4c0.21-0.68,0.42-1.36,0.63-2.03
		c0.11-0.13,0.23-0.27,0.34-0.4c0.26-0.66-0.05-1.49,0.61-2.03c0.12-0.13,0.24-0.27,0.36-0.4c0.39-0.44,0.47-0.99,0.55-1.54
		C1124.08,193.79,1124.22,193.64,1124.35,193.48z M1280.84,212.41c-1.85-5.09-4-10.03-6.72-14.74
		c-5.59-9.67-12.98-17.66-22.17-23.97c-6.16-4.23-12.97-7.14-20.09-9.24c-5.29-1.56-10.77-2.15-16.3-2.23
		c-8.36-0.12-16.52,0.79-24.56,3.42c-6.6,2.17-12.39,5.77-18.39,9.03c-0.4,0.22-0.93,0.44-1.11,0.81c-0.58,1.16-1.7,1.68-2.62,2.45
		c-1.74,1.45-3.64,2.74-5.2,4.36c-3.24,3.38-6.08,7.1-8.71,10.97c-4.41,6.51-7.78,13.51-10.03,21.06
		c-3.34,11.25-4.28,22.71-3.15,34.36c1.67,17.17,7.81,32.42,19.42,45.37c7.32,8.16,16.14,14.18,26.3,18.12
		c8.36,3.24,17.12,4.74,26.12,4.78c3.75,0.02,7.43-0.41,11.11-1.04c6.23-1.08,12.28-2.61,18.05-5.35
		c8.83-4.19,16.47-9.86,22.94-17.15c5.21-5.87,9.32-12.44,12.41-19.61c6.99-16.24,8.23-33.13,5.4-50.45
		c-0.53-3.27-1.72-6.38-2.21-9.65C1281.48,213.16,1281.49,212.66,1280.84,212.41z"/>
	<path class="st0" d="M357.71,137.64c3.22-0.3,6.42-0.83,9.65-1.12c9.33-0.86,18.64-0.63,27.83,1.11
		c5.56,1.05,11.06,2.51,16.39,4.48c4.76,1.75,9.39,3.82,13.76,6.34c5.36,3.09,10.5,6.58,15.16,10.66
		c6.57,5.76,12.42,12.2,17.23,19.53c6.84,10.41,11.92,21.57,14.81,33.73c2.16,9.07,3.27,18.25,3.28,27.56
		c0.04,28.51,0.01,57.03,0.02,85.54c0,1.87-0.06,3.75-0.62,5.53c-2.34,7.49-8.83,11.35-17.4,9.59c-5.39-1.11-9.22-5.97-9.7-10.49
		c-0.12-1.17-0.02-2.36-0.02-3.53c0-7.05,0-14.09,0-21.6c-1.52,1.88-2.81,3.44-4.07,5.04c-2.81,3.56-6.01,6.75-9.28,9.9
		c-3.28,3.16-6.87,5.99-10.63,8.38c-5.55,3.54-11.39,6.67-17.66,8.98c-5.26,1.93-10.61,3.46-16.09,4.36
		c-5.67,0.93-11.43,1.2-17.19,1.19c-5.28-0.01-10.57-0.36-15.72-1.23c-4.48-0.76-9.13-1.27-13.31-3.49
		c-1.23-0.66-2.69-1.01-4.13-1.3c-1.28-0.26-2.47-1.04-3.69-1.6c-2.4-1.12-4.86-2.09-7.14-3.56c-2.52-1.63-5.28-3.02-7.71-4.76
		c-2.27-1.63-4.87-2.93-6.66-5.24c-0.92-1.19-2.35-1.83-3.49-2.83c-2.29-2.01-4.12-4.45-6.45-6.42c-1.23-1.04-2.18-2.51-3.23-3.8
		c-2.7-3.34-5.27-6.83-7.53-10.48c-2.78-4.48-4.71-9.44-7.11-14.12c-2.32-4.52-3.19-9.45-4.93-14.12
		c-1.29-3.46-1.59-7.32-2.15-11.03c-1.06-7.06-1.65-14.15-1.47-21.3c0.18-7.05,0.85-14.05,2.26-20.97c0.14-0.71,0.18-1.44,0.27-2.17
		c0.62-0.14,1.05-0.35,0.35-0.97c0.05-0.5,0.1-0.99,0.16-1.49c0.1-0.15,0.2-0.3,0.31-0.45c0.07-0.5,0.14-1,0.21-1.5
		c0.1-0.14,0.19-0.28,0.29-0.41c0.04-0.34,0.09-0.67,0.13-1.01c0.58-0.12,1.06-0.29,0.41-0.95c0.03-0.34,0.07-0.68,0.1-1.02
		c0.11-0.14,0.22-0.29,0.32-0.43c0.05-0.34,0.1-0.68,0.15-1.02c0.11-0.15,0.22-0.29,0.34-0.44c0.05-0.34,0.1-0.68,0.15-1.02
		c0.11-0.15,0.22-0.29,0.33-0.44c0.04-0.34,0.09-0.68,0.13-1.02c0.12-0.15,0.23-0.3,0.35-0.46c0.05-0.33,0.11-0.67,0.16-1
		c0.11-0.13,0.22-0.26,0.34-0.4c0.21-0.68,0.42-1.36,0.63-2.03c0.11-0.13,0.23-0.27,0.34-0.4c0.26-0.66-0.05-1.49,0.61-2.03
		c0.12-0.13,0.24-0.27,0.36-0.4c0.39-0.44,0.47-0.99,0.55-1.54c0.14-0.15,0.27-0.31,0.41-0.46c0.77-2.27,1.46-4.57,3.22-6.33
		c0.78-0.19,0.66-0.83,0.69-1.4c0.67-2.41,2.5-4.15,3.67-6.28c0.58-1.06,1-2.35,2.18-3.02c0.97-0.08,0.95-0.77,0.93-1.47
		c1.88-2.86,4.28-5.26,6.52-7.82c1.64-1.87,3.36-3.66,5.06-5.47c0.99-1.05,2.58-1.37,3.24-2.78c0.08-0.02,0.15-0.07,0.2-0.14
		c1.62-1.66,3.55-2.9,5.45-4.2c0.72,0.02,1.39-0.03,1.41-1c0.02-0.28,0.17-0.44,0.45-0.49c0.17-0.11,0.34-0.21,0.52-0.32
		c0.32-0.22,0.63-0.43,0.95-0.65c0.17-0.1,0.34-0.2,0.51-0.3c0.63-0.38,1.26-0.76,1.89-1.14c0.18-0.11,0.36-0.23,0.55-0.34
		c0.64-0.38,1.28-0.76,1.92-1.14c0.72,0.04,1.44,0.06,1.5-0.94l0-0.01c0.15-0.12,0.31-0.23,0.46-0.35c3.11-1.84,6.45-3.18,9.8-4.5
		c0.14-0.12,0.28-0.24,0.41-0.36c4.62-1.98,9.49-3.17,14.36-4.33c0.7-0.17,1.44-0.13,2.16-0.19
		C356.9,138.54,357.61,138.61,357.71,137.64z M376.69,162.24c-4.69-0.17-9.67,0.36-14.57,1.41c-8.13,1.74-15.76,4.8-22.71,9.41
		c-1.01,0.67-2.31,0.78-3.12,1.74c-1.05,1.25-2.41,2.14-3.65,3.16c-2.97,2.44-5.93,4.89-8.35,7.93c-3.38,4.24-6.56,8.6-9.25,13.34
		c-2.28,4.02-4.08,8.27-5.67,12.54c-1.09,2.94-1.76,6.18-2.4,9.35c-2.15,10.75-2.45,21.54-0.82,32.37
		c1.49,9.9,4.54,19.27,9.62,27.97c4.37,7.48,9.77,14.07,16.43,19.6c5.44,4.52,11.51,8.1,18.05,10.77c7.92,3.23,16.26,4.7,24.79,5.1
		c4.55,0.21,9.05-0.18,13.54-0.98c6.28-1.13,12.47-2.52,18.16-5.51c2.07-1.09,4.07-2.3,6.25-3.19c1.28-0.52,2.33-1.44,3.36-2.35
		c0.3-0.26,0.5-0.7,0.84-0.84c4.44-1.86,7.25-5.73,10.68-8.8c1.63-1.46,2.9-3.43,4.31-5.18c4.87-6.04,8.57-12.68,11.1-19.98
		c1.47-4.23,2.99-8.46,3.83-12.87c1.94-10.1,2.12-20.26,0.75-30.45c-1.13-8.41-3.54-16.43-7.24-24.06
		c-3.23-6.65-7.29-12.75-12.36-18.16c-2.71-2.9-5.63-5.54-8.74-8.04c-7.23-5.8-15.44-9.58-24.24-12.12
		C389.36,162.66,383.22,162.11,376.69,162.24z"/>
	<path class="st0" d="M682.51,331.99c-0.67-0.54-1.03-1.18-0.58-2.04c0.34-0.38,0.2-0.64-0.2-0.85c-0.03-1.21-0.08-2.43-0.08-3.64
		c0-31.67,0.01-63.33-0.01-95c-0.01-9.27-0.96-18.42-3.83-27.29c-2.49-7.69-6.19-14.65-11.69-20.72c-7.67-8.48-17-13.95-27.95-16.99
		c-8.69-2.42-17.48-2.97-26.42-2.31c-3.8,0.28-7.57,0.73-11.25,1.71c-8.1,2.16-15.75,5.38-22.48,10.42
		c-8.52,6.38-14.89,14.45-18.62,24.54c-2.06,5.58-2.86,11.33-2.86,17.22c0,36.12,0,72.24,0,108.36c0,3.01-0.26,5.97-1.73,8.7
		c-2.09,3.9-5.2,6.27-9.69,6.77c-2.28,0.25-4.56,0.08-6.77-0.3c-1.26-0.22-2.52-1.04-3.54-1.88c-1.69-1.37-3.21-2.93-4.29-4.89
		c-1.09-1.97-1.18-4.11-1.42-6.24c-0.09-0.8-0.02-1.62-0.02-2.43c0-56.85,0-113.7,0-170.56c0-1.62-0.03-3.23-0.05-4.85
		c0.97-0.19,1.13-0.66,0.51-1.42c0.03-0.34,0.05-0.69,0.08-1.03c0.11-0.14,0.21-0.28,0.32-0.41c1.32-2.63,2.41-5.44,5.3-6.87
		c0.17-0.09,0.33-0.19,0.5-0.28c1.89-0.98,3.95-1.57,6.01-1.66c7.09-0.32,12.97,3.41,14.41,11.25c0.6,3.28,0.34,6.6,0.38,9.9
		c0.02,1.61,0,3.22,0,5.09c2.54-1.45,3.71-3.92,5.58-5.69c1.86-1.77,3.87-3.34,5.84-4.97c0.16-0.05,0.28-0.15,0.36-0.3
		c1.32-0.87,2.34-2.18,3.94-2.63c0.15-0.13,0.3-0.25,0.45-0.38c0.3-0.2,0.6-0.39,0.9-0.59c0.18-0.12,0.37-0.24,0.55-0.36
		c0.71-0.09,1.09-0.64,1.53-1.11c0.14-0.11,0.28-0.22,0.42-0.32c0.97-0.54,1.93-1.09,2.9-1.63c0.17-0.09,0.33-0.18,0.5-0.27
		c3.3-1.14,6.13-3.27,9.42-4.46c2.92-1.05,5.89-1.91,8.85-2.81c3.68-1.12,7.42-1.81,11.24-2.28c5.65-0.69,11.29-0.97,16.97-0.68
		c5,0.25,10.02,0.6,14.87,1.82c6.58,1.65,13.26,3.08,19.34,6.29c1.64,0.86,3.37,1.54,5,2.41c8.26,4.42,15.46,10.22,21.64,17.23
		c4.25,4.81,7.78,10.17,10.77,15.86c2.48,4.72,4.59,9.63,6.16,14.75c2.37,7.71,3.97,15.57,4.68,23.61
		c0.48,5.41,0.51,10.83,0.51,16.26c-0.01,30.7-0.01,61.39,0.01,92.09c0,4.75-1.42,8.78-5.14,11.96c-1.74,1.49-3.65,2.32-5.83,2.71
		c-1.86,0.33-3.72,0.12-5.58,0.06c-0.2-0.43-0.45-0.69-0.92-0.31c-1.71-0.03-3.17-0.54-4.28-1.93c-0.99-1.25-2.22-2.29-3.31-3.45
		c-0.65-0.7-0.97-1.38-1.13-2.23C683.33,332.42,683.02,332.17,682.51,331.99z"/>
	<path class="st0" d="M781.43,339.28c-0.18-0.07-0.36-0.14-0.54-0.21c-0.13-0.09-0.26-0.19-0.39-0.28c-1.8-1.16-3.06-2.83-4.22-4.57
		c-0.43-0.65-0.91-1.35-0.68-2.23c0.69-0.66,0.2-0.83-0.4-0.96c-0.03-0.33-0.06-0.66-0.09-0.98c0.51-0.37,0.4-0.69-0.09-0.97
		c-0.08-1.53-0.22-3.07-0.22-4.6c-0.01-56.2-0.01-112.4,0-168.6c0-2.52-0.18-5.07,0.34-7.55c0.88-4.2,3.19-7.37,7.24-9.05
		c3.67-1.52,7.39-1.84,11.21-0.36c4.54,1.76,7.02,5.21,8.16,9.74c0.41,1.64,0.5,3.34,0.5,5.05c-0.02,57.17-0.02,114.34-0.01,171.52
		c0,2.45-0.15,4.88-1.05,7.16c-1.93,4.9-5.37,7.95-10.77,8.51c-2.97,0.31-5.8-0.19-8.56-1.27
		C781.73,339.51,781.58,339.39,781.43,339.28z"/>
	<path class="st0" d="M769.2,79.74c-0.01-3.83,0.26-6.77,1.52-9.62c1.26-2.87,3.03-5.3,5.48-7.17c6.65-5.05,14-5.14,21.3-2.01
		c2.93,1.25,5.47,3.73,7.17,6.63c4.24,7.26,4.25,14.66,0.42,22.11c-0.18,0.36-0.39,0.71-0.63,1.03c-4.13,5.55-9.37,8.96-16.58,8.59
		c-2.15-0.11-4.33-0.13-6.39-0.82c-3.85-1.29-6.67-3.93-8.94-7.18C769.97,87.59,768.82,83.46,769.2,79.74z"/>
	<path class="st1" d="M1067.49,159.46c0.12,2.03-0.37,3.85-1.84,5.33C1065.87,162.87,1066.62,161.15,1067.49,159.46z"/>
	<path class="st1" d="M887.1,284.35c1.43,1.03,1.45,2.64,1.72,4.15C887.67,287.36,887.49,285.81,887.1,284.35z"/>
	<path class="st1" d="M1050.06,215.39c0.05,1.48-0.16,2.86-1.44,3.84C1048.91,217.88,1049.18,216.52,1050.06,215.39z"/>
	<path class="st1" d="M900.67,327.13c1.54,0.98,1.47,2.64,1.77,4.15C901.21,330.17,901.2,328.54,900.67,327.13z"/>
	<path class="st1" d="M82.46,59.82c0.57,1-0.08,1.69-0.62,2.41C81.59,61.61,81.75,60.99,82.46,59.82z"/>
	<path class="st1" d="M529.52,148.3c0.62,0.76,0.46,1.24-0.51,1.42C529.02,149.18,528.69,148.53,529.52,148.3z"/>
	<path class="st1" d="M1071.33,147.31c-0.11,0.71,0.35,1.65-0.8,1.93C1070.38,148.42,1070.7,147.8,1071.33,147.31z"/>
	<path class="st1" d="M298.84,174.99c0.02,0.7,0.03,1.4-0.93,1.47C297.83,175.72,298.22,175.28,298.84,174.99z"/>
	<path class="st1" d="M189.5,267.32c0.89,0.12,0.89,0.78,0.88,1.45C189.76,268.48,189.36,268.06,189.5,267.32z"/>
	<path class="st1" d="M220.07,310.6c0.98,0.07,0.96,0.78,0.94,1.48C220.39,311.78,219.99,311.34,220.07,310.6z"/>
	<path class="st1" d="M1135.05,174.99c0.02,0.7,0.03,1.4-0.93,1.47C1134.03,175.72,1134.43,175.28,1135.05,174.99z"/>
	<path class="st1" d="M162.71,229.41c0.94,0.1,0.92,0.79,0.91,1.47C163,230.58,162.6,230.16,162.71,229.41z"/>
	<path class="st1" d="M84.81,55.91c0.01,0.7,0.02,1.39-0.94,1.46C83.79,56.63,84.17,56.19,84.81,55.91z"/>
	<path class="st1" d="M329.01,148.27c-0.07,1-0.78,0.98-1.5,0.94C327.8,148.56,328.46,148.5,329.01,148.27z"/>
	<path class="st1" d="M357.71,137.64c-0.1,0.97-0.81,0.9-1.5,0.88C356.57,137.99,356.92,137.45,357.71,137.64z"/>
	<path class="st1" d="M1165.22,148.27c-0.07,1-0.78,0.98-1.5,0.94C1164,148.56,1164.66,148.5,1165.22,148.27z"/>
	<path class="st1" d="M1193.91,137.64c-0.1,0.97-0.81,0.9-1.5,0.88C1192.78,137.99,1193.13,137.45,1193.91,137.64z"/>
	<path class="st1" d="M292.06,185.76c-0.03,0.56,0.09,1.2-0.69,1.4C290.96,186.37,291.44,186.03,292.06,185.76z"/>
	<path class="st1" d="M1156.94,153.59c-0.02,0.97-0.69,1.02-1.42,1C1155.77,153.94,1156.4,153.83,1156.94,153.59z"/>
	<path class="st1" d="M320.73,153.59c-0.02,0.97-0.69,1.02-1.41,1C319.57,153.94,320.19,153.83,320.73,153.59z"/>
	<path class="st1" d="M1054.44,201.29c0.52,0.47,0.25,0.73-0.25,0.93C1054,201.84,1053.68,201.42,1054.44,201.29z"/>
	<path class="st1" d="M1119.07,207.59c0.65,0.66,0.17,0.83-0.41,0.95C1118.49,208.09,1118.45,207.69,1119.07,207.59z"/>
	<path class="st1" d="M282.86,207.59c0.65,0.66,0.17,0.83-0.41,0.95C282.29,208.09,282.25,207.69,282.86,207.59z"/>
	<path class="st1" d="M862.72,208.04c0.53,0.1,1.12,0.17,0.54,0.92C862.61,208.93,862.66,208.49,862.72,208.04z"/>
	<path class="st1" d="M775.21,331.02c0.6,0.13,1.09,0.3,0.4,0.96C775.05,331.83,775.05,331.46,775.21,331.02z"/>
	<path class="st1" d="M691.5,340.53c0.47-0.38,0.72-0.12,0.92,0.31C691.88,341.43,691.61,341.22,691.5,340.53z"/>
	<path class="st1" d="M859.32,197.35c0.53,0.1,1.12,0.17,0.54,0.92C859.21,198.23,859.25,197.8,859.32,197.35z"/>
	<path class="st1" d="M281.36,213.4c0.7,0.62,0.27,0.83-0.35,0.97C280.81,213.93,280.79,213.56,281.36,213.4z"/>
	<path class="st1" d="M846.75,157.49c0.54,0.12,1.03,0.25,0.46,0.92C846.57,158.34,846.55,157.97,846.75,157.49z"/>
	<path class="st1" d="M1057.33,192.05c0.61,0.75,0.03,0.83-0.52,0.93C1056.74,192.53,1056.73,192.12,1057.33,192.05z"/>
	<path class="st1" d="M1117.57,213.4c0.7,0.62,0.27,0.83-0.35,0.97C1117.02,213.93,1117,213.56,1117.57,213.4z"/>
	<path class="st1" d="M775.03,329.06c0.49,0.28,0.6,0.6,0.09,0.97C774.43,329.77,774.42,329.45,775.03,329.06z"/>
	<path class="st1" d="M681.73,329.1c0.4,0.21,0.54,0.47,0.2,0.85c-0.3,0-0.59-0.06-0.6-0.43
		C681.32,329.28,681.49,329.14,681.73,329.1z"/>
	<path class="st1" d="M866.14,218.73c0.53,0.1,1.11,0.18,0.53,0.92C866.01,219.62,866.07,219.18,866.14,218.73z"/>
	<path class="st1" d="M682.51,331.99c0.52,0.19,0.82,0.44,0.27,0.93C682.05,332.79,682.32,332.38,682.51,331.99z"/>
	<path class="st1" d="M869.54,229.43c0.53,0.1,1.11,0.18,0.53,0.92C869.42,230.31,869.48,229.87,869.54,229.43z"/>
	<path class="st1" d="M1064.17,170.18c0.58,0.75,0,0.82-0.54,0.92C1063.56,170.65,1063.53,170.23,1064.17,170.18z"/>
	<path class="st1" d="M1055.29,198.41c-0.1,0.13-0.2,0.25-0.3,0.38C1054.79,198.42,1055.02,198.4,1055.29,198.41z"/>
	<path class="st1" d="M859.94,199.32c0.14,0.08,0.24,0.2,0.28,0.36C859.97,199.69,859.73,199.69,859.94,199.32z"/>
	<path class="st1" d="M850.69,170.15c0.1,0.14,0.19,0.27,0.29,0.41C850.72,170.54,850.46,170.52,850.69,170.15z"/>
	<path class="st1" d="M850.22,168.7c0.14,0.08,0.24,0.2,0.28,0.36C850.24,169.07,850,169.06,850.22,168.7z"/>
	<path class="st1" d="M1065.02,167.27c-0.11,0.13-0.21,0.27-0.32,0.4C1064.52,167.32,1064.75,167.28,1065.02,167.27z"/>
	<path class="st1" d="M849.73,167.24c0.14,0.08,0.24,0.2,0.28,0.36C849.75,167.61,849.51,167.6,849.73,167.24z"/>
	<path class="st1" d="M853.13,177.93c0.14,0.08,0.24,0.2,0.28,0.36C853.16,178.31,852.92,178.3,853.13,177.93z"/>
	<path class="st1" d="M853.62,179.39c0.14,0.08,0.24,0.2,0.28,0.36C853.64,179.76,853.4,179.76,853.62,179.39z"/>
	<path class="st1" d="M1061.11,179.85c-0.12,0.16-0.24,0.32-0.35,0.47C1060.64,179.99,1060.84,179.89,1061.11,179.85z"/>
	<path class="st1" d="M854.11,180.85c0.09,0.13,0.19,0.26,0.28,0.39C854.13,181.23,853.88,181.21,854.11,180.85z"/>
	<path class="st1" d="M1060.63,181.35c-0.1,0.14-0.21,0.29-0.31,0.43C1060.13,181.42,1060.37,181.38,1060.63,181.35z"/>
	<path class="st1" d="M1060.15,182.83c-0.1,0.13-0.2,0.26-0.3,0.4C1059.65,182.87,1059.89,182.84,1060.15,182.83z"/>
	<path class="st1" d="M1065.5,165.81c-0.11,0.14-0.21,0.27-0.32,0.41C1065,165.86,1065.23,165.82,1065.5,165.81z"/>
	<path class="st1" d="M1059.67,184.31c-0.1,0.13-0.2,0.25-0.3,0.38C1059.17,184.32,1059.4,184.3,1059.67,184.31z"/>
	<path class="st1" d="M847.28,159.46c0.1,0.14,0.19,0.27,0.29,0.41C847.31,159.85,847.06,159.82,847.28,159.46z"/>
	<path class="st1" d="M1128.25,185.71c-0.14,0.15-0.27,0.3-0.41,0.45C1127.78,185.84,1127.95,185.71,1128.25,185.71z"/>
	<path class="st1" d="M856.54,188.63c0.14,0.08,0.24,0.2,0.28,0.36C856.56,189,856.32,188.99,856.54,188.63z"/>
	<path class="st1" d="M857.03,190.09c0.14,0.08,0.24,0.2,0.28,0.36C857.05,190.46,856.81,190.45,857.03,190.09z"/>
	<path class="st1" d="M1057.72,190.59c-0.11,0.14-0.22,0.28-0.33,0.42C1057.22,190.65,1057.44,190.6,1057.72,190.59z"/>
	<path class="st1" d="M857.51,191.55c0.09,0.13,0.19,0.26,0.28,0.39C857.54,191.92,857.29,191.9,857.51,191.55z"/>
	<path class="st1" d="M313.87,158.79c-0.05,0.07-0.12,0.11-0.2,0.14C313.59,158.67,313.61,158.56,313.87,158.79z"/>
	<path class="st1" d="M288.15,193.48c-0.14,0.15-0.27,0.31-0.41,0.46C287.69,193.62,287.85,193.49,288.15,193.48z"/>
	<path class="st1" d="M1124.35,193.48c-0.14,0.15-0.27,0.31-0.41,0.46C1123.89,193.62,1124.06,193.49,1124.35,193.48z"/>
	<path class="st1" d="M287.19,195.48c-0.12,0.13-0.24,0.27-0.36,0.4C286.71,195.53,286.89,195.46,287.19,195.48z"/>
	<path class="st1" d="M1123.39,195.48c-0.12,0.13-0.24,0.27-0.36,0.4C1122.91,195.53,1123.1,195.46,1123.39,195.48z"/>
	<path class="st1" d="M1055.76,196.87c-0.1,0.15-0.21,0.31-0.31,0.46C1055.28,196.99,1055.5,196.92,1055.76,196.87z"/>
	<path class="st1" d="M568.31,153.33c-0.08,0.15-0.2,0.25-0.36,0.3C567.93,153.36,567.96,153.14,568.31,153.33z"/>
	<path class="st1" d="M286.21,197.91c-0.11,0.13-0.23,0.27-0.34,0.4C285.73,197.95,285.93,197.9,286.21,197.91z"/>
	<path class="st1" d="M1122.42,197.91c-0.11,0.13-0.23,0.27-0.34,0.4C1121.94,197.95,1122.14,197.9,1122.42,197.91z"/>
	<path class="st1" d="M1157.9,152.78c-0.17,0.11-0.34,0.21-0.52,0.32C1157.47,152.86,1157.57,152.64,1157.9,152.78z"/>
	<path class="st1" d="M321.69,152.78c-0.17,0.11-0.34,0.21-0.52,0.32C321.26,152.86,321.37,152.64,321.69,152.78z"/>
	<path class="st1" d="M1054.81,199.86c-0.1,0.13-0.19,0.25-0.29,0.38C1054.3,199.87,1054.54,199.86,1054.81,199.86z"/>
	<path class="st1" d="M285.24,200.34c-0.11,0.13-0.22,0.26-0.34,0.4C284.75,200.38,284.96,200.33,285.24,200.34z"/>
	<path class="st1" d="M1121.45,200.34c-0.11,0.13-0.22,0.26-0.34,0.4C1120.96,200.38,1121.16,200.33,1121.45,200.34z"/>
	<path class="st1" d="M860.43,200.78c0.14,0.08,0.24,0.2,0.28,0.36C860.45,201.15,860.21,201.14,860.43,200.78z"/>
	<path class="st1" d="M1159.35,151.83c-0.17,0.1-0.34,0.2-0.51,0.3C1158.94,151.89,1159.03,151.66,1159.35,151.83z"/>
	<path class="st1" d="M284.74,201.74c-0.12,0.15-0.23,0.3-0.35,0.46C284.27,201.86,284.47,201.77,284.74,201.74z"/>
	<path class="st1" d="M1120.95,201.74c-0.12,0.15-0.23,0.3-0.35,0.46C1120.48,201.86,1120.67,201.77,1120.95,201.74z"/>
	<path class="st1" d="M860.92,202.24c0.14,0.08,0.24,0.21,0.28,0.37C860.94,202.61,860.69,202.6,860.92,202.24z"/>
	<path class="st1" d="M284.26,203.21c-0.11,0.15-0.22,0.29-0.33,0.44C283.77,203.3,283.99,203.24,284.26,203.21z"/>
	<path class="st1" d="M1053.82,203.2c-0.11,0.15-0.22,0.3-0.32,0.45C1053.35,203.32,1053.56,203.24,1053.82,203.2z"/>
	<path class="st1" d="M1120.47,203.21c-0.11,0.15-0.22,0.29-0.33,0.44C1119.97,203.3,1120.19,203.24,1120.47,203.21z"/>
	<path class="st1" d="M283.77,204.67c-0.11,0.15-0.22,0.29-0.34,0.44C283.31,204.78,283.5,204.7,283.77,204.67z"/>
	<path class="st1" d="M1053.34,204.69c-0.11,0.14-0.22,0.28-0.33,0.42C1052.84,204.75,1053.06,204.7,1053.34,204.69z"/>
	<path class="st1" d="M1119.98,204.67c-0.11,0.15-0.22,0.29-0.34,0.44C1119.51,204.78,1119.71,204.7,1119.98,204.67z"/>
	<path class="st1" d="M283.29,206.13c-0.11,0.14-0.22,0.29-0.32,0.43C282.82,206.23,283.02,206.16,283.29,206.13z"/>
	<path class="st1" d="M1052.85,206.14c-0.11,0.14-0.22,0.28-0.33,0.42C1052.35,206.21,1052.58,206.16,1052.85,206.14z"/>
	<path class="st1" d="M1119.49,206.13c-0.11,0.14-0.22,0.29-0.32,0.43C1119.02,206.23,1119.23,206.16,1119.49,206.13z"/>
	<path class="st1" d="M1069.88,151.72c-0.11,0.14-0.21,0.27-0.32,0.41C1069.38,151.76,1069.61,151.72,1069.88,151.72z"/>
	<path class="st1" d="M323.15,151.83c-0.17,0.1-0.34,0.2-0.51,0.3C322.73,151.9,322.82,151.66,323.15,151.83z"/>
	<path class="st1" d="M1161.79,150.35c-0.18,0.11-0.36,0.23-0.55,0.34C1161.35,150.45,1161.45,150.21,1161.79,150.35z"/>
	<path class="st1" d="M282.32,209.55c-0.1,0.14-0.19,0.28-0.29,0.41C281.8,209.59,282.06,209.58,282.32,209.55z"/>
	<path class="st1" d="M1051.87,209.5c-0.13,0.16-0.27,0.32-0.4,0.48C1051.41,209.66,1051.58,209.54,1051.87,209.5z"/>
	<path class="st1" d="M1118.52,209.55c-0.1,0.14-0.19,0.28-0.29,0.41C1118,209.59,1118.27,209.58,1118.52,209.55z"/>
	<path class="st1" d="M863.35,210.02c0.14,0.08,0.24,0.2,0.28,0.36C863.37,210.39,863.13,210.38,863.35,210.02z"/>
	<path class="st1" d="M281.82,211.46c-0.1,0.15-0.2,0.3-0.31,0.45C281.34,211.57,281.57,211.51,281.82,211.46z"/>
	<path class="st1" d="M863.84,211.47c0.14,0.08,0.24,0.2,0.28,0.36C863.86,211.85,863.62,211.84,863.84,211.47z"/>
	<path class="st1" d="M1118.03,211.46c-0.1,0.15-0.2,0.3-0.31,0.45C1117.55,211.57,1117.77,211.51,1118.03,211.46z"/>
	<path class="st1" d="M1050.9,212.43c-0.11,0.15-0.22,0.3-0.33,0.46C1050.43,212.55,1050.63,212.47,1050.9,212.43z"/>
	<path class="st1" d="M1070.36,150.25c-0.11,0.14-0.22,0.28-0.32,0.42C1069.86,150.31,1070.09,150.26,1070.36,150.25z"/>
	<path class="st1" d="M864.32,212.93c0.14,0.08,0.24,0.21,0.28,0.37C864.34,213.31,864.1,213.3,864.32,212.93z"/>
	<path class="st1" d="M572.71,150.31c-0.15,0.13-0.3,0.25-0.45,0.38C572.26,150.39,572.37,150.21,572.71,150.31z"/>
	<path class="st1" d="M325.59,150.35c-0.18,0.11-0.36,0.23-0.55,0.34C325.14,150.45,325.24,150.21,325.59,150.35z"/>
	<path class="st1" d="M1050.42,213.94c-0.1,0.13-0.19,0.26-0.29,0.39C1049.91,213.97,1050.17,213.96,1050.42,213.94z"/>
	<path class="st1" d="M574.16,149.36c-0.18,0.12-0.37,0.24-0.55,0.36C573.71,149.48,573.82,149.24,574.16,149.36z"/>
	<path class="st1" d="M1165.68,147.91c-0.15,0.12-0.31,0.23-0.46,0.35C1165.25,147.97,1165.34,147.77,1165.68,147.91z"/>
	<path class="st1" d="M1048.47,220.24c-0.11,0.14-0.22,0.28-0.33,0.42C1047.97,220.31,1048.2,220.25,1048.47,220.24z"/>
	<path class="st1" d="M866.75,220.71c0.14,0.08,0.24,0.2,0.28,0.36C866.78,221.08,866.54,221.07,866.75,220.71z"/>
	<path class="st1" d="M1047.99,221.71c-0.11,0.14-0.21,0.27-0.32,0.41C1047.49,221.76,1047.72,221.72,1047.99,221.71z"/>
	<path class="st1" d="M867.24,222.17c0.14,0.08,0.24,0.2,0.28,0.36C867.26,222.54,867.02,222.53,867.24,222.17z"/>
	<path class="st1" d="M867.73,223.63c0.14,0.08,0.22,0.2,0.26,0.35C867.71,224,867.52,223.96,867.73,223.63z"/>
	<path class="st1" d="M576.11,147.93c-0.14,0.11-0.28,0.22-0.42,0.32C575.69,147.97,575.77,147.78,576.11,147.93z"/>
	<path class="st1" d="M329.48,147.91c-0.15,0.12-0.31,0.23-0.46,0.35C329.04,147.97,329.13,147.77,329.48,147.91z"/>
	<path class="st1" d="M870.16,231.4c0.14,0.08,0.24,0.2,0.28,0.36C870.18,231.78,869.94,231.77,870.16,231.4z"/>
	<path class="st1" d="M870.65,232.86c0.14,0.08,0.24,0.2,0.28,0.36C870.67,233.23,870.43,233.23,870.65,232.86z"/>
	<path class="st1" d="M871.13,234.32c0.14,0.08,0.22,0.2,0.26,0.35C871.11,234.69,870.92,234.65,871.13,234.32z"/>
	<path class="st1" d="M873.56,242.1c0.14,0.08,0.24,0.2,0.28,0.36C873.59,242.47,873.35,242.46,873.56,242.1z"/>
	<path class="st1" d="M874.05,243.56c0.14,0.08,0.24,0.2,0.28,0.36C874.07,243.93,873.84,243.92,874.05,243.56z"/>
	<path class="st1" d="M874.54,245.01c0.14,0.08,0.22,0.2,0.26,0.35C874.52,245.39,874.33,245.34,874.54,245.01z"/>
	<path class="st1" d="M876.97,252.79c0.14,0.08,0.24,0.2,0.28,0.36C876.99,253.16,876.75,253.16,876.97,252.79z"/>
	<path class="st1" d="M877.46,254.25c0.14,0.08,0.24,0.2,0.28,0.36C877.48,254.62,877.24,254.61,877.46,254.25z"/>
	<path class="st1" d="M877.94,255.71c0.14,0.08,0.24,0.2,0.28,0.36C877.96,256.08,877.73,256.07,877.94,255.71z"/>
	<path class="st1" d="M880.38,263.48c0.14,0.08,0.24,0.2,0.28,0.36C880.4,263.86,880.16,263.85,880.38,263.48z"/>
	<path class="st1" d="M880.86,264.94c0.14,0.08,0.24,0.2,0.28,0.36C880.88,265.32,880.65,265.31,880.86,264.94z"/>
	<path class="st1" d="M881.35,266.4c0.14,0.08,0.24,0.2,0.28,0.36C881.37,266.77,881.13,266.77,881.35,266.4z"/>
	<path class="st1" d="M529.92,146.85c-0.11,0.14-0.21,0.28-0.32,0.41C529.45,146.93,529.65,146.86,529.92,146.85z"/>
	<path class="st1" d="M883.78,274.18c0.14,0.08,0.24,0.2,0.28,0.36C883.8,274.55,883.56,274.54,883.78,274.18z"/>
	<path class="st1" d="M884.27,275.64c0.14,0.08,0.24,0.2,0.28,0.36C884.29,276.01,884.05,276,884.27,275.64z"/>
	<path class="st1" d="M884.75,277.1c0.14,0.08,0.24,0.2,0.28,0.36C884.77,277.47,884.54,277.46,884.75,277.1z"/>
	<path class="st1" d="M579.5,146.02c-0.17,0.09-0.33,0.18-0.5,0.27C579.1,146.07,579.17,145.82,579.5,146.02z"/>
	<path class="st1" d="M891.08,297.02c0.14,0.08,0.24,0.2,0.28,0.36C891.1,297.4,890.86,297.39,891.08,297.02z"/>
	<path class="st1" d="M891.56,298.48c0.14,0.08,0.24,0.2,0.28,0.36C891.58,298.86,891.35,298.85,891.56,298.48z"/>
	<path class="st1" d="M892.05,299.94c0.09,0.13,0.19,0.26,0.28,0.39C892.08,300.32,891.83,300.3,892.05,299.94z"/>
	<path class="st1" d="M894.48,307.72c0.14,0.08,0.24,0.2,0.28,0.36C894.5,308.09,894.27,308.08,894.48,307.72z"/>
	<path class="st1" d="M894.97,309.18c0.14,0.08,0.24,0.2,0.28,0.36C894.99,309.55,894.75,309.54,894.97,309.18z"/>
	<path class="st1" d="M847.08,143.89c-0.14,0.16-0.27,0.31-0.41,0.47C846.61,144.04,846.78,143.91,847.08,143.89z"/>
	<path class="st1" d="M895.45,310.64c0.09,0.13,0.19,0.26,0.28,0.39C895.48,311.01,895.23,310.99,895.45,310.64z"/>
	<path class="st1" d="M897.89,318.41c0.14,0.08,0.24,0.2,0.28,0.36C897.91,318.78,897.67,318.78,897.89,318.41z"/>
	<path class="st1" d="M898.37,319.87c0.14,0.08,0.24,0.2,0.28,0.36C898.39,320.24,898.16,320.23,898.37,319.87z"/>
	<path class="st1" d="M898.86,321.33c0.14,0.08,0.24,0.21,0.28,0.37C898.88,321.7,898.64,321.69,898.86,321.33z"/>
	<path class="st1" d="M1175.9,143.05c-0.14,0.12-0.28,0.24-0.41,0.36C1175.48,143.12,1175.57,142.95,1175.9,143.05z"/>
	<path class="st1" d="M339.7,143.05c-0.14,0.12-0.28,0.24-0.41,0.36C339.27,143.12,339.36,142.95,339.7,143.05z"/>
	<path class="st1" d="M1077.15,139.67c-0.17,0.1-0.34,0.21-0.51,0.31C1076.72,139.74,1076.82,139.51,1077.15,139.67z"/>
	<path class="st1" d="M535.72,139.7c-0.17,0.09-0.33,0.19-0.5,0.28C535.31,139.75,535.39,139.51,535.72,139.7z"/>
	<path class="st1" d="M240.96,53.95c-0.14,0.16-0.29,0.32-0.43,0.49C240.49,54.12,240.67,53.98,240.96,53.95z"/>
	<path class="st1" d="M780.5,338.78c0.13,0.09,0.26,0.19,0.39,0.28C780.52,339.29,780.51,339.04,780.5,338.78z"/>
	<path class="st1" d="M241.39,339.31c0.17,0.1,0.35,0.21,0.52,0.31C241.58,339.78,241.48,339.55,241.39,339.31z"/>
	<path class="st1" d="M781.43,339.28c0.15,0.11,0.3,0.23,0.44,0.34C781.52,339.77,781.44,339.57,781.43,339.28z"/>
	<path class="st1" d="M242.43,339.77c0.16,0.14,0.31,0.27,0.47,0.41C242.57,340.24,242.44,340.07,242.43,339.77z"/>
	<path class="st1" d="M1064.53,168.74c-0.1,0.13-0.2,0.26-0.3,0.39C1064.03,168.77,1064.27,168.75,1064.53,168.74z"/>
	<path class="st1" d="M1281.35,213.71c-0.52-0.3-0.99-0.61-0.51-1.3C1281.49,212.66,1281.48,213.16,1281.35,213.71z"/>
</g>
</svg>
