<?xml version="1.0" encoding="UTF-8"?>
<svg id="Capa_1" data-name="Capa 1" xmlns="http://www.w3.org/2000/svg" viewBox="0 0 1820 1820">
  <defs>
    <style>
      .cls-1 {
        fill: #fff;
      }

      .cls-2 {
        fill: #f0b600;
      }

      .cls-3 {
        fill: #43771b;
      }

      .cls-4 {
        fill: #1d702d;
      }

      .cls-5 {
        fill: #db001b;
      }

      .cls-6 {
        fill: #005bab;
      }

      .cls-7 {
        fill: #86a20b;
      }
    </style>
  </defs>
  <g>
    <polygon class="cls-4" points="0 1820 1820 1820 1820 1288.75 0 981.8 0 1820"/>
    <polyline class="cls-5" points="728.76 926.97 355.75 0 1.06 0 1.06 804.17"/>
    <polygon class="cls-7" points="1481.22 0 1667.81 586.24 1820 361.51 1820 0 1481.22 0"/>
    <polyline class="cls-2" points="1364.42 1034.24 1593.29 696.28 1361.85 0 536.08 0 910.53 957.64"/>
    <polyline class="cls-3" points="1820 1111.12 1820 604.51 1512.87 1059.29"/>
  </g>
  <g>
    <path class="cls-1" d="m1406.93,627.48c-95.64-320.26-460.31-465.9-752.43-302.65-233.28,130.37-328.44,421.45-214.6,657.52,48.21,99.97,121.2,180.57,203.59,252.85,87.43,76.71,176.69,151.32,266.07,227.64,54.15-45.35,107.22-89.77,160.26-134.22,86.09-72.15,171.89-144.63,241.05-234.17,108.1-139.96,147.3-295.43,96.07-466.97Z"/>
    <path class="cls-6" d="m1353.77,655.94c-85.4-285.96-411.01-416.01-671.85-270.24-208.3,116.41-293.27,376.31-191.62,587.1,43.05,89.27,108.22,161.23,181.78,225.77,78.07,68.49,157.77,135.12,237.58,203.26,48.35-40.49,95.73-80.15,143.1-119.84,76.87-64.42,153.48-129.14,215.24-209.09,96.52-124.97,131.52-263.79,85.78-416.95Z"/>
    <path class="cls-1" d="m911.45,1443.08c45.94-38.7,90.64-77.15,136.54-114.11,6.84-5.51,21.39-8.31,28.93-4.85,28.81,13.2,59.02,25.95,83.51,45.41,37.66,29.93,35.32,71.58-1.53,103.02-31.34,26.74-68.93,40.64-108.4,50.17-105.24,25.41-209.96,24.39-312.52-11.31-27.44-9.55-54.16-25.62-76.49-44.33-33.83-28.34-34.2-68.75.56-96.18,26.85-21.18,60.04-34.57,91.24-49.74,5-2.43,15.88,2.07,21.36,6.61,45.93,37.99,91.24,76.73,136.8,115.3Z"/>
    <path class="cls-6" d="m911.53,1440.43c36.37-30.63,71.75-61.07,108.08-90.33,5.41-4.36,16.93-6.57,22.9-3.84,22.81,10.45,46.72,20.54,66.1,35.95,29.81,23.69,27.96,56.66-1.21,81.55-24.81,21.17-54.56,32.17-85.8,39.72-83.3,20.11-166.2,19.31-247.38-8.95-21.72-7.56-42.87-20.28-60.55-35.09-26.78-22.44-27.07-54.42.45-76.14,21.25-16.77,47.53-27.37,72.22-39.37,3.96-1.92,12.57,1.64,16.91,5.23,36.36,30.07,72.22,60.74,108.29,91.27Z"/>
    <g>
      <g>
        <path class="cls-1" d="m679.48,622.37l105.68,1.35,124.85,192.58,117.23-192.58,110.69-1.35-119.16,193.93,213.38,222.35h-194.23l-127.91-143.48-129.56,143.48h-191.51s219.11-223.79,216.16-223.79-125.6-192.49-125.6-192.49Z"/>
        <polygon class="cls-1" points="796.21 484.44 850.89 484.44 910 576.15 966.98 484.44 1025.14 484.44 910 676.81 796.21 484.44"/>
        <polygon class="cls-1" points="717.26 519.89 817.54 519.89 910.53 673.37 1003.48 519.89 1095.52 519.89 910 819.85 717.26 519.89"/>
      </g>
      <polygon class="cls-6" points="783.76 623.66 908.6 816.24 1029.91 623.66 909.13 789.27 783.76 623.66"/>
      <polygon class="cls-6" points="816.15 519.84 909.13 673.32 1002.09 519.84 909.28 655.2 816.15 519.84"/>
    </g>
  </g>
</svg>